<?xml version="1.0" standalone="no"?>
<!DOCTYPE svg PUBLIC "-//W3C//DTD SVG 20010904//EN"
 "http://www.w3.org/TR/2001/REC-SVG-20010904/DTD/svg10.dtd">
<svg version="1.0" xmlns="http://www.w3.org/2000/svg"
 width="700.000000pt" height="700.000000pt" viewBox="0 0 700.000000 700.000000"
 preserveAspectRatio="xMidYMid meet">
<metadata>
Created by potrace 1.11, written by Peter Selinger 2001-2013
</metadata>
<g transform="translate(0.000000,700.000000) scale(0.100000,-0.100000)"
fill="#000000" stroke="none">
<path d="M2989 6706 c-2 -2 -49 -6 -104 -10 -197 -12 -394 -76 -550 -180 -253
-167 -425 -404 -460 -633 -6 -40 -9 -43 -38 -44 -70 -2 -180 -14 -217 -24 -3
-1 -25 -5 -50 -9 -64 -12 -186 -53 -250 -84 -181 -88 -345 -298 -366 -467 -3
-22 -6 -51 -8 -65 -9 -70 46 -255 93 -312 6 -7 33 -41 60 -75 28 -34 76 -82
107 -107 79 -65 119 -60 131 16 21 138 157 324 250 343 21 5 45 10 53 12 31 7
167 3 220 -7 30 -5 115 -29 188 -52 l132 -42 29 -50 c125 -222 115 -427 -34
-751 -32 -68 -38 -75 -58 -69 -40 13 -150 11 -262 -3 -333 -43 -459 -6 -805
235 -128 90 -227 128 -346 135 -119 7 -204 -23 -274 -96 -88 -91 -127 -196
-175 -472 -25 -146 -25 -756 0 -887 3 -11 7 -46 11 -77 3 -31 8 -58 9 -61 2
-3 6 -25 10 -50 11 -74 54 -228 91 -328 137 -365 344 -643 758 -1017 22 -20
193 -161 226 -187 19 -14 58 -44 85 -65 75 -59 314 -233 318 -233 6 0 -26 155
-57 277 -38 147 -80 263 -147 397 -32 65 -59 121 -59 124 0 3 11 -10 25 -29
13 -19 28 -38 32 -44 4 -5 32 -46 62 -90 169 -248 286 -355 536 -486 l118 -62
-7 37 c-4 21 -10 45 -14 54 -3 9 9 -1 28 -23 19 -22 51 -59 73 -81 l39 -41
-49 -7 c-26 -4 -65 -19 -86 -32 -47 -31 -86 -108 -81 -160 3 -33 137 -379 191
-492 29 -62 78 -99 143 -108 60 -8 124 10 150 43 19 25 22 26 59 13 26 -8 58
-10 91 -6 56 8 84 20 115 52 18 18 24 19 50 8 59 -26 136 -10 190 37 33 29 35
30 64 15 47 -25 190 -63 261 -71 65 -6 208 -7 265 -1 38 4 155 35 174 46 10 5
27 -2 50 -21 59 -47 146 -57 198 -23 20 13 26 12 59 -11 21 -14 48 -28 62 -32
34 -8 140 3 157 17 12 10 20 8 41 -13 25 -25 103 -43 144 -34 43 10 90 39 112
68 37 49 171 485 173 565 2 55 6 66 47 120 68 88 136 198 189 302 26 51 86
146 133 210 47 64 113 155 146 201 33 46 60 82 60 80 0 -3 -29 -63 -64 -134
-82 -166 -136 -330 -181 -553 -9 -42 -18 -85 -21 -95 -5 -17 -3 -17 18 -6 12
7 39 24 58 39 19 15 91 69 160 120 131 98 349 272 428 344 61 55 277 270 326
326 141 159 277 373 364 570 41 94 104 297 118 380 3 14 9 48 14 75 5 28 12
67 15 88 3 20 7 52 9 70 25 180 26 730 2 863 -2 11 -6 40 -10 65 -18 122 -39
202 -78 288 -76 172 -187 243 -368 234 -121 -6 -206 -42 -380 -163 -267 -185
-453 -247 -659 -219 -31 5 -85 11 -121 15 -36 4 -74 8 -85 10 -11 1 -27 3 -36
3 -10 1 -26 27 -43 74 -34 90 -69 171 -113 264 l-34 72 22 22 c19 19 21 29 16
88 -22 226 -98 469 -212 674 -30 54 -55 99 -55 100 0 2 15 1 33 -1 47 -5 87
29 87 74 0 90 -158 329 -314 477 -49 46 -188 156 -222 175 -13 7 -11 13 16 40
25 26 30 38 26 62 -6 42 -14 50 -99 102 -156 96 -413 217 -577 272 -102 33
-151 46 -255 66 -27 6 -61 12 -75 15 -14 3 -65 8 -115 11 -49 4 -93 8 -96 10
-3 2 -8 2 -10 0z m1714 -5568 c-6 -74 -11 -85 -45 -97 -17 -6 -41 -19 -52 -29
-20 -17 -20 -17 -5 8 61 97 101 160 103 160 2 0 1 -19 -1 -42z"/>
</g>
</svg>
